<svg width="24" height="24" viewBox="0 0 24 24" fill="none" xmlns="http://www.w3.org/2000/svg">
  <path
    fill-rule="evenodd"
    clip-rule="evenodd"
    d="M12 24C18.6274 24 24 18.6274 24 12C24 5.37258 18.6274 0 12 0C5.37258 0 0 5.37258 0 12C0 18.6274 5.37258 24 12 24ZM10.517 8.40115C11.1773 8.23557 12.1431 8.23764 12.804 8.40115C13.4649 8.56465 14.0708 8.88728 14.5638 9.33818C15.0568 9.78908 15.3369 10.3455 15.5363 10.9689C15.611 11.2023 15.6501 11.423 15.6622 11.6412H10.8411L18.1187 15.0032C18.2587 14.8026 18.5617 14.279 18.7584 13.6572L18.763 13.6585L18.7763 13.5995C18.7928 13.5451 18.8084 13.4899 18.823 13.4343L18.8129 13.4279C19.0385 12.3269 19.1028 11.122 18.763 10.06C18.3994 8.92326 17.6091 7.53265 16.7101 6.71041C15.8112 5.88818 14.8634 5.43966 13.6583 5.1415C12.4532 4.84335 10.1672 5.0637 8.96308 5.36563L10.517 8.40115ZM12.4845 15.9085C12.1966 15.9049 11.948 15.9165 11.7343 15.9265C11.4252 15.9409 11.1894 15.952 11.0138 15.9085C10.2721 15.725 9.74708 15.4224 9.2541 14.9715C8.76112 14.5206 8.37218 14.1067 8.19811 13.2101C8.02405 12.3136 8.05314 11.8299 8.19811 11.193L5.4417 9.84819C5.4046 10.0112 5.36406 10.1725 5.32305 10.3357C5.07179 11.3355 4.8033 12.404 5.20694 14.3308C5.57059 15.4675 6.08147 16.4151 6.98044 17.2373C7.8794 18.0596 8.697 18.5153 9.90213 18.8134C11.7277 19.129 12.954 19.0375 14.1278 18.5893L12.4845 15.9085Z"
    fill="#1896A4"
  />
</svg>